<svg xmlns="http://www.w3.org/2000/svg" viewBox="0 0 512 512">
  <rect width="512" height="512" rx="128" fill="#0D8B95"/>
  <path d="M256 128C185.3 128 128 185.3 128 256C128 326.7 185.3 384 256 384C326.7 384 384 326.7 384 256C384 185.3 326.7 128 256 128ZM320 272H272V320C272 328.8 264.8 336 256 336C247.2 336 240 328.8 240 320V272H192C183.2 272 176 264.8 176 256C176 247.2 183.2 240 192 240H240V192C240 183.2 247.2 176 256 176C264.8 176 272 183.2 272 192V240H320C328.8 240 336 247.2 336 256C336 264.8 328.8 272 320 272Z" fill="white"/>
</svg>
